<svg width="106" height="106" viewBox="0 0 106 106" fill="none" xmlns="http://www.w3.org/2000/svg">
<g filter="url(#filter0_i_5067_3260)">
<g clip-path="url(#clip0_5067_3260)">
<rect width="106" height="106" rx="53" fill="white"/>
<g clip-path="url(#clip1_5067_3260)">
<path d="M91.8347 54.6865C91.7997 54.2665 91.7298 53.8115 91.6073 53.3389C90.7327 50.0837 86.3053 48.2807 84.6431 45.4279C82.9634 42.5226 83.6115 37.7801 81.2667 35.4347C78.9044 33.0719 74.1792 33.7363 71.2743 32.0559C68.422 30.3931 66.6199 25.9652 63.365 25.0898C60.1975 24.2319 56.4345 27.154 53.0044 27.1536C49.5744 27.1532 45.8121 24.2302 42.6619 25.0698C39.4067 25.9445 37.6037 30.3719 34.7509 32.0341C31.8456 33.7138 27.1031 33.0657 24.7402 35.428C22.3774 37.7902 23.0418 42.5154 21.3614 45.4203C19.6985 48.2727 15.2707 50.0747 14.3953 53.3297C14.2727 53.8022 14.2202 54.2397 14.1676 54.6772L14.1676 54.7472C14.1501 55.0447 14.1501 55.3247 14.1675 55.6222L14.1669 60.9774C14.1644 62.7223 14.5062 64.4506 15.1728 66.0633C15.8393 67.6759 16.8174 69.1412 18.0512 70.3753C19.2849 71.6093 20.75 72.5878 22.3625 73.2547C23.9749 73.9216 25.7032 74.2638 27.4481 74.2618L78.5845 74.2679C80.3294 74.2704 82.0577 73.9286 83.6704 73.262C85.283 72.5955 86.7483 71.6174 87.9824 70.3836C89.2164 69.1499 90.1949 67.6848 90.8618 66.0723C91.5287 64.4599 91.871 62.7316 91.8689 60.9867L91.8347 54.6865Z" fill="#FFCE7C"/>
<path d="M53.8598 42.2566C41.7145 42.2552 31.843 52.1242 31.8416 64.2696L31.8404 74.2448L75.8715 74.2501L75.8727 64.2748C75.8742 52.0945 66.0226 42.2406 53.8598 42.2566Z" fill="#FFDEA7"/>
<path d="M66.3034 41.4706C67.5109 42.1183 69.0335 41.6809 69.6812 40.4735L73.7247 33.0013L72.7622 32.7386C71.7997 32.406 70.9072 31.8984 70.0848 31.2858L69.3673 30.6032L65.3238 38.0754C64.6587 39.3003 65.096 40.8229 66.3034 41.4706ZM53.0035 37.7239C51.6385 37.7237 50.5186 36.6036 50.5188 35.2385L50.5023 26.7508L51.4823 26.9959C52.4798 27.1536 53.5298 27.1537 54.5274 26.9963L55.4899 26.7339L55.4889 35.2391C55.4887 36.6042 54.3686 37.7241 53.0035 37.7239ZM39.5627 41.4674C38.3551 42.1148 36.8327 41.6771 36.1853 40.4695L32.1611 33.0138L33.1061 32.7689C34.0687 32.4365 34.9613 31.9291 35.7839 31.3167L36.5015 30.6342L40.5432 38.1074C41.2081 39.2975 40.7704 40.82 39.5627 41.4674ZM25.911 52.9811C27.0309 53.7862 28.571 53.5414 29.3937 52.439C29.7864 51.9075 29.9551 51.2433 29.8636 50.5889C29.772 49.9345 29.4275 49.3421 28.9041 48.9388L22.0445 43.8979L21.6769 44.8253C21.2043 45.7528 20.5916 46.5753 19.874 47.2927L19.0864 47.9401L25.911 52.9811ZM79.9174 52.9875C78.7973 53.7924 77.2573 53.5472 76.4349 52.4446C75.63 51.3245 75.8752 49.7845 76.9428 48.9621L83.8036 43.9228L84.171 44.8503C84.6434 45.7779 85.2558 46.6005 85.9733 47.3181L86.7432 47.9482L79.9174 52.9875Z" fill="#F3AD61"/>
</g>
</g>
<rect x="2.5" y="2.5" width="101" height="101" rx="50.5" stroke="#FFB300" stroke-width="5"/>
</g>
<defs>
<filter id="filter0_i_5067_3260" x="0" y="0" width="106" height="110" filterUnits="userSpaceOnUse" color-interpolation-filters="sRGB">
<feFlood flood-opacity="0" result="BackgroundImageFix"/>
<feBlend mode="normal" in="SourceGraphic" in2="BackgroundImageFix" result="shape"/>
<feColorMatrix in="SourceAlpha" type="matrix" values="0 0 0 0 0 0 0 0 0 0 0 0 0 0 0 0 0 0 127 0" result="hardAlpha"/>
<feOffset dy="4"/>
<feGaussianBlur stdDeviation="2"/>
<feComposite in2="hardAlpha" operator="arithmetic" k2="-1" k3="1"/>
<feColorMatrix type="matrix" values="0 0 0 0 0 0 0 0 0 0 0 0 0 0 0 0 0 0 0.25 0"/>
<feBlend mode="normal" in2="shape" result="effect1_innerShadow_5067_3260"/>
</filter>
<clipPath id="clip0_5067_3260">
<rect width="106" height="106" rx="53" fill="white"/>
</clipPath>
<clipPath id="clip1_5067_3260">
<rect width="79.198" height="79.198" fill="white" transform="translate(53.0078 -3) rotate(45.0069)"/>
</clipPath>
</defs>
</svg>
